# xmcd CD database file
#
# Track frame offsets:
#	150
#	91260
#	112876
#	196939
#
# Disc length: 3019 seconds
#
# Revision: 0
# Processed by: cddbd v1.5.2PL0 Copyright (c) Steve Scherf et al.
# Submitted via: CDex 1.51
#
DISCID=260bc904
DTITLE=Exploding Star Orchestra - Stars Have Shapes
DYEAR=2010
DGENRE=Jazz
TTITLE0=Ascension Ghost Impression #2
TTITLE1=ChromoRocker
TTITLE2=Three Blocks of Light
TTITLE3=Impression #1
EXTD=YEAR: 2010
EXTT0=
EXTT1=
EXTT2=
EXTT3=
PLAYORDER=
